<?xml version="1.0" encoding="utf-8"?>
<svg xmlns="http://www.w3.org/2000/svg" viewBox="0 0 4198.9 459.74"><defs><style>.cls-1{fill:#111;}.cls-2{fill:#2d2dfe;}</style></defs><g id="Layer_2" data-name="Layer 2"><g id="Full_Logo" data-name="Full Logo"><path class="cls-1" d="M495.67,5.46H692.11V72.3H571.38V212.14h101v55.93h-101V454.29H495.67Z"/><path class="cls-1" d="M751,315.14V5.46h75.72V317.18c0,49.8,22.51,73.67,58.66,73.67,34.1,0,55.93-23.87,55.93-73.67V5.46h66.85V315.14c0,97.54-48.43,144.6-128.24,144.6S751,412.68,751,315.14Z"/><path class="cls-1" d="M1149.25,72.3h-81.86V5.46h239.42V72.3H1225v382h-75.71Z"/><path class="cls-1" d="M1366,315.14V5.46h75.71V317.18c0,49.8,22.51,73.67,58.66,73.67,34.11,0,55.93-23.87,55.93-73.67V5.46h66.85V315.14c0,97.54-48.43,144.6-128.23,144.6S1366,412.68,1366,315.14Z"/><path class="cls-1" d="M1703,5.46h117.33c92.08,0,133.69,40.93,133.69,128.92,0,62.75-16.37,97.54-60.71,108.45v.68c43.66,8.87,60,38.2,60,81.18v129.6h-75.72V326.73c0-34.1-15.69-51.16-54.57-51.16h-44.33V454.29H1703Zm115.28,219c43.65,0,61.39-21.14,61.39-76.39,0-53.2-18.42-75.72-60-75.72h-40.93V224.41Z"/><path class="cls-1" d="M2032.35,5.46h199.17V72.3H2108.06V202.59H2207v51.84h-98.91v133H2236.3v66.85h-204Z"/><path class="cls-1" d="M2368.34,72.3h-81.85V5.46h239.42V72.3h-81.85v382h-75.72Z"/><path class="cls-1" d="M2585.73,5.46h75.71V190.31h118.69V5.46h75.71V454.29h-75.71V253.75H2661.44V454.29h-75.71Z"/><path class="cls-1" d="M2937.27,5.46h199.17V72.3H3013V202.59h98.91v51.84H3013v133h128.24v66.85H2937.27Z"/><path class="cls-1" d="M3186.91,227.83C3186.91,71.62,3230.57,0,3325.38,0c94.13,0,137.1,71.62,137.1,227.83,0,158.93-43,231.91-137.1,231.91C3230.57,459.74,3186.91,386.76,3186.91,227.83Zm199.18,0c0-110.5-19.1-161-60.71-161-42.29,0-61.39,50.48-61.39,161,0,113.23,19.1,165.07,61.39,165.07C3367,392.9,3386.09,341.06,3386.09,227.83Z"/><path class="cls-1" d="M3534.84,5.46h117.33c92.08,0,133.69,40.93,133.69,128.92,0,62.75-16.37,97.54-60.71,108.45v.68c43.66,8.87,60,38.2,60,81.18v129.6h-75.72V326.73c0-34.1-15.68-51.16-54.56-51.16h-44.34V454.29h-75.72Zm115.28,219c43.66,0,61.39-21.14,61.39-76.39,0-53.2-18.42-75.72-60-75.72h-40.92V224.41Z"/><path class="cls-1" d="M3937.28,289.9,3830.19,5.46h91.4l60,204.63H3983L4042.32,5.46h78.45L4013,289.9V454.29h-75.71Z"/><polygon class="cls-2" points="299.22 5.46 0 5.46 0 454.29 149.61 454.29 149.61 155.07 299.22 155.07 299.22 5.46"/><path class="cls-2" d="M149.61,229.87H299.22a0,0,0,0,1,0,0V379.48a0,0,0,0,1,0,0h0A149.61,149.61,0,0,1,149.61,229.87v0A0,0,0,0,1,149.61,229.87Z"/><path class="cls-1" d="M4149.18,363.59a40.91,40.91,0,1,1-40.91,40.91,41,41,0,0,1,40.91-40.91m0-8.8a49.71,49.71,0,1,0,49.72,49.71,49.71,49.71,0,0,0-49.72-49.71Z"/><path d="M4159.16,427.54h11.5L4160.2,408.4l.46-.2a13.69,13.69,0,0,0,6.12-5.4,16,16,0,0,0,2.12-8.43,16.77,16.77,0,0,0-2.08-8.51,14,14,0,0,0-6-5.6,21.06,21.06,0,0,0-9.53-2h-19.44v49.27h10.41V410.08h7.61Zm-16.94-40.75h7a12.29,12.29,0,0,1,5,.88,6.18,6.18,0,0,1,3,2.56,8.13,8.13,0,0,1,1,4.14,7.8,7.8,0,0,1-1,4.06,6,6,0,0,1-2.95,2.46,13.07,13.07,0,0,1-4.95.81h-7.08Z"/></g></g></svg>